<svg width="349" height="263" viewBox="0 0 349 263" fill="none" xmlns="http://www.w3.org/2000/svg">
<path d="M225.66 119.392C225.66 119.392 242.66 146.637 258.907 161.647C275.154 176.657 294.065 192.034 282.612 220.271C271.159 248.508 237.403 260.072 177.039 258.596C116.675 257.121 95.3611 256.799 82.1225 226.853C68.8839 196.907 112.944 190.191 143.041 181.087C173.138 171.982 225.66 119.392 225.66 119.392Z" fill="#EDE6FA"/>
<path opacity="0.49" d="M228.563 178.869C228.563 178.869 236.843 210.828 207.324 218.414C177.804 226.003 122.723 224.885 101.986 210.12C81.2497 195.354 228.563 178.869 228.563 178.869Z" fill="#BCACE1"/>
<path d="M305.41 234.195C308.333 232.395 309.726 228.451 308.583 225.215C306.713 219.927 301.876 221.71 298.438 218.932C294.389 215.662 299.286 210.518 299.016 206.657C298.72 202.409 294.896 198.306 293.744 194.2C291.103 184.763 301.831 191.806 304.89 190.706C306.169 190.245 307.008 188.96 307.304 187.629C308.055 184.237 306.627 181.496 308.484 178.286C310.278 175.187 312.928 173.788 312.163 169.58C311.731 167.197 310.261 165.013 310.298 162.591C310.309 161.897 310.506 161.118 311.111 160.78C311.572 160.521 312.146 160.592 312.644 160.765C314.296 161.345 315.382 162.887 316.713 164.027C318.043 165.167 320.181 165.872 321.458 164.672C322.308 163.873 322.391 162.582 322.564 161.428C322.874 159.347 324.336 157.902 326.15 159.105C328.126 160.416 327.369 165.576 327.071 167.427C326.599 170.362 325.882 173.41 326.755 176.253C328.197 180.956 332.138 175.687 333.855 174.129C335.263 172.852 337.614 172.088 338.965 173.421C341.654 176.074 337.33 179.62 336.761 182.133C336.488 183.33 336.841 184.763 337.904 185.377C341.017 187.18 343.648 183.967 344.12 188.764C344.444 192.051 341.47 195.184 343.315 198.471C344.927 201.343 350.292 202.563 348.171 206.592C346.869 209.065 341.262 208.954 341.558 212.474C341.751 214.769 345.2 215.81 345.203 218.113C345.206 219.847 343.187 220.871 341.455 220.959C339.724 221.047 337.898 220.643 336.303 221.32C334.492 222.088 333.443 224.314 334.003 226.202C334.492 227.843 336.019 229.335 335.538 230.979C334.961 232.955 332.223 233.026 330.19 232.711C321.882 231.411 312.985 230.544 305.41 234.195Z" fill="#FFA601"/>
<path d="M321.1 233.376C320.804 233.376 320.568 233.137 320.568 232.844V195.775C320.568 195.482 320.807 195.244 321.1 195.244C321.395 195.244 321.631 195.482 321.631 195.775V232.841C321.631 233.137 321.395 233.376 321.1 233.376Z" fill="white"/>
<path d="M321.1 218.949C320.98 218.949 320.864 218.909 320.764 218.829C320.537 218.644 320.5 218.309 320.687 218.079L330.409 206.094C330.597 205.864 330.932 205.832 331.159 206.017C331.387 206.202 331.424 206.538 331.236 206.768L321.515 218.753C321.407 218.88 321.256 218.949 321.1 218.949Z" fill="white"/>
<path d="M321.1 208.826C320.978 208.826 320.855 208.787 320.756 208.701L309.169 198.951C308.945 198.761 308.916 198.425 309.104 198.201C309.294 197.976 309.63 197.948 309.854 198.135L321.441 207.885C321.666 208.076 321.694 208.411 321.506 208.636C321.401 208.764 321.251 208.826 321.1 208.826Z" fill="white"/>
<path d="M303.79 229C305.314 239.131 306.687 249.728 309.252 259.503C309.465 260.317 309.715 261.17 310.233 261.693C310.844 262.31 311.674 262.321 312.439 262.304C316.863 262.202 321.296 262.486 325.72 262.46C329.903 262.438 333.357 262.776 333.795 255.83C333.946 253.421 334.327 228.997 336.548 228.997C336.539 229 303.79 229 303.79 229Z" fill="#41ABFC"/>
<path d="M333.556 235.053H306.781C303.451 235.053 300.724 232.329 300.724 228.997C300.724 225.667 303.448 222.941 306.781 222.941H333.556C336.886 222.941 339.613 225.665 339.613 228.997C339.613 232.329 336.886 235.053 333.556 235.053Z" fill="#8CD9FE"/>
<path d="M204.486 12.6472C204.486 12.6472 207.994 20.4436 202.512 25.2432C197.03 30.0428 189.578 26.2441 182.345 30.6399C175.111 35.0357 175.89 40.2447 179.208 51.8427C183.155 65.6386 187.465 65.2263 191.341 66.2243C195.216 67.2252 196.374 78.0213 196.812 83.0199C197.249 88.0185 197.906 91.4163 184.096 98.2147C170.286 105.013 177.821 115.411 179.206 128.889C180.738 143.796 163.05 152.395 159.982 155.994C156.914 159.594 149.677 160.194 145.731 152.596C141.784 144.999 161.838 139.406 160.087 127.211C158.333 115.016 147.625 106.81 162.751 94.8141C177.878 82.818 174.889 73.2246 169.848 63.4293C164.807 53.634 162.396 49.8353 166.558 37.2393C170.721 24.6433 166.339 28.442 171.819 18.4448C177.303 8.45043 197.252 -2.54761 204.486 12.6472Z" fill="#6F609E"/>
<path d="M194.946 71.8199L196.047 92.346L212.114 98.5417C212.114 98.5417 202.453 84.4046 204.09 71.8171C205.728 59.2325 194.946 71.8199 194.946 71.8199Z" fill="#D4A79A"/>
<path d="M232.183 138.408C232.183 138.408 231.116 136.455 227.921 126.423C224.725 116.392 223.57 112.662 219.132 102.955C214.693 93.2474 205.458 87.1825 205.458 87.1825L193.917 86.5598C193.917 86.5598 192.495 86.648 185.839 92.1527C179.18 97.6574 172.788 113.373 172.788 113.373L169.948 144.624L189.925 159.361L204.045 164.45C203.365 163.543 202.817 162.582 202.475 161.564C200.11 154.533 208.037 115.59 208.304 112.127C208.572 108.664 215.279 141.692 215.279 141.692L221.088 140.006L225.074 152.707L227.568 139.739L232.183 138.408Z" fill="#FF4956"/>
<path d="M225.879 155.278L225.071 152.707L223.783 159.406L225.879 155.278Z" fill="url(#paint0_linear)"/>
<path d="M215.273 141.692C215.273 141.692 208.566 108.664 208.299 112.127C208.031 115.59 200.104 154.533 202.47 161.564C202.811 162.582 203.36 163.543 204.039 164.45L218.566 169.685L223.783 159.403L225.071 152.705L221.085 140.003L215.273 141.692Z" fill="#FDC510"/>
<path d="M215.273 141.692C215.273 141.692 208.566 108.664 208.299 112.127C208.031 115.59 200.104 154.533 202.47 161.564C202.811 162.582 203.36 163.543 204.039 164.45L218.566 169.685L223.783 159.403L225.071 152.705L221.085 140.003L215.273 141.692Z" fill="#D7384E"/>
<path d="M97.5534 129.272L179.118 133.208L194.946 148.539L118.762 146.62L97.5534 129.272Z" fill="#616F97"/>
<path d="M174.466 135.681L100.829 130.708C98.8386 130.862 97.1126 129.523 96.9733 127.711L82.1339 87.899C81.9946 86.0907 83.493 84.4984 85.4805 84.3448L159.117 89.3207C161.108 89.1672 162.834 90.5064 162.973 92.3176L177.812 132.13C177.955 133.936 176.453 135.528 174.466 135.681Z" fill="#EDE6FA"/>
<path d="M137.524 113.354C138.399 109.329 135.301 105.239 130.605 104.218C125.91 103.197 121.394 105.633 120.519 109.658C119.644 113.683 122.742 117.773 127.437 118.794C132.133 119.815 136.649 117.379 137.524 113.354Z" fill="#BCACE1"/>
<path d="M63.999 199.969L43.1772 230.464L52.6569 238.474L72.4921 205.366C72.4921 205.363 67.9456 200.248 63.999 199.969Z" fill="#D4A79A"/>
<path d="M1.00769 247.473C1.00769 247.473 9.01738 250.208 24.3657 251.346C39.7141 252.486 56.8452 253.055 59.9587 250.777C63.0722 248.5 65.0739 229.134 59.9587 229.134C54.8435 229.134 52.8532 236.538 43.8313 229.93C36.1031 224.269 29.9273 234.943 16.4698 237.789C3.01225 240.635 -2.43844 241.778 1.00769 247.473Z" fill="#FF7B01"/>
<path d="M193.607 166.995C191.767 163.535 181.81 165.485 169.877 161.047C157.94 156.609 150.232 147.285 136.672 136.543C123.112 125.801 124.039 127.663 118.187 127.22C112.336 126.776 105.091 142.58 101.002 150.928C92.3955 168.505 81.5027 184.212 65.2302 194.431C60.2856 197.536 38.5 209.347 34.8605 214.294C27.1948 224.707 64.8833 224.795 74.7383 225.997C84.4939 227.186 89.9644 221.644 93.911 212.887C98.4149 202.898 103.342 193.123 108.264 183.347C110.727 178.457 113.2 173.569 115.614 168.653C116.655 166.535 118.907 158.846 121.417 157.888C129.14 154.948 139.333 178.488 141.5 183.777C145.865 194.431 161.841 206.862 173.451 208.104C185.06 209.347 193.792 201.624 197.599 190.348C201.409 179.071 193.607 166.995 193.607 166.995Z" fill="#40B3B7"/>
<path d="M103.718 202.281L82.8959 232.776L92.3756 240.786L112.211 207.678C112.208 207.675 107.664 202.56 103.718 202.281Z" fill="#EAC2AB"/>
<path d="M40.7263 249.785C40.7263 249.785 48.736 252.52 64.0844 253.657C79.4327 254.798 96.5639 255.366 99.6773 253.089C102.791 250.811 104.792 231.445 99.6773 231.445C94.5621 231.445 92.5718 238.849 83.5499 232.241C75.8217 226.58 69.6459 237.254 56.1884 240.1C42.7309 242.947 37.2773 244.09 40.7263 249.785Z" fill="#FFA601"/>
<path d="M223.747 166.995C221.989 163.535 212.47 165.485 201.062 161.047C189.655 156.609 182.285 147.285 169.322 136.543C156.359 125.801 157.246 127.663 151.654 127.22C146.061 126.776 139.134 142.58 135.228 150.928C123.209 176.606 98.4746 193.839 75.9639 209.694C74.5649 210.678 72.9954 212.045 73.2854 213.731C73.4333 214.59 74.0475 215.284 74.6758 215.889C83.0267 223.95 98.6708 227.576 109.913 227.05C121.233 226.521 127.377 217.075 131.654 207.735C139.302 191.024 146.774 173.805 156.067 157.945C159.558 151.991 170.687 176.029 171.654 178.266C177.417 191.63 188.859 206.356 204.483 208.104C215.581 209.347 223.926 201.624 227.568 190.348C231.205 179.071 223.747 166.995 223.747 166.995Z" fill="#8EE9DD"/>
<path d="M180.59 28.1263C180.59 28.1263 172.009 34.4556 175.424 48.6723C178.839 62.889 189.459 75.0301 193.744 74.1742C205.592 71.8086 209.746 63.4349 213.855 56.2498C218.893 47.4383 208.89 25.9426 208.89 25.9426L199.442 20.8474L180.59 28.1263Z" fill="#EAC2AB"/>
<path d="M197.69 21.8454C197.69 21.8454 203.653 23.8443 208.893 32.2407C214.133 40.637 210.696 42.0075 210.696 53.2643C210.696 56.5541 210.079 59.7955 208.296 62.599C207.002 64.6348 205.157 66.2385 203.818 68.2345C202.126 70.7537 201.586 73.5971 201.722 76.6025C202.009 82.9573 203.024 88.2346 208.668 91.8229C214.77 95.7012 217.616 100.882 219.22 107.882C221.139 116.264 234.958 121.007 239.78 117.808C244.602 114.609 230.218 116.745 233.07 102.952C235.919 89.1558 236.897 83.3014 228.566 79.4686C220.235 75.6357 224.216 74.6235 228.6 66.2271C232.985 57.8307 221.682 57.9331 226.144 43.3183C231.293 26.4488 226.627 7.64859 201.415 12.8462C176.203 18.0438 197.69 21.8454 197.69 21.8454Z" fill="#6F609E"/>
<path d="M191.551 37.899C198.785 33.5003 197.033 30.04 202.515 25.2432C207.994 20.4437 204.489 12.6472 204.489 12.6472C197.255 -2.54759 177.306 8.44761 171.824 18.4448C166.342 28.442 170.73 24.6433 166.564 37.2393C163.692 45.92 163.948 50.4239 166.035 55.5931L177.827 60.367C173.053 42.255 186.109 41.2058 191.551 37.899Z" fill="#6F609E"/>
<path d="M220.906 154.743C220.906 154.743 220.906 159.625 219.041 158.738C217.176 157.851 199.686 146.93 197.377 144.357C195.069 141.78 189.652 132.46 189.388 130.595C189.12 128.73 190.01 128.641 186.368 129.173C182.729 129.705 176.158 131.749 177.136 132.901C178.111 134.055 180.863 133.256 180.863 133.256C180.863 133.256 177.639 135.298 179.206 135.565C180.772 135.832 185.39 134.942 185.39 136.364C185.39 137.786 185.123 142.579 186.189 144.976C187.255 147.373 188.586 148.172 192.049 148.971C195.512 149.77 196.124 149.503 198.97 152.434C201.816 155.366 217.707 169.48 219.749 170.191C221.79 170.902 222.678 172.145 225.165 167.615C227.653 163.086 229.428 159.625 229.604 152.523C229.78 145.42 228.981 138.585 228.981 138.585L221.08 140.006C221.085 140.006 221.793 147.996 220.906 154.743Z" fill="#EAC2AB"/>
<path d="M246.468 64.5552C247.884 58.0667 251.045 51.5981 253.366 45.3683C254.6 42.0587 257.309 37.5946 257.585 34.049C257.676 32.886 258.785 32.0245 260.062 32.124L307.358 28.9281C308.634 29.0276 309.598 30.0484 309.507 31.2113L299.976 56.7815C299.886 57.9444 298.777 58.8059 297.5 58.7064L259.357 61.1432C257.019 62.562 253.312 63.9808 250.971 65.394C248.376 66.9606 245.168 70.5091 246.468 64.5552Z" fill="#EDE6FA"/>
<path d="M280.696 48.2743L296.064 47.6061C297.099 47.5606 297.907 46.6792 297.861 45.6442C297.816 44.6092 296.934 43.8017 295.899 43.8472L280.531 44.5154C279.496 44.5609 278.688 45.4423 278.734 46.4773C278.779 47.5095 279.661 48.317 280.696 48.2743Z" fill="white"/>
<path d="M269.644 41.9079L297.486 40.6995C298.521 40.654 299.328 39.7726 299.283 38.7376C299.237 37.7026 298.356 36.8951 297.321 36.9406L269.479 38.149C268.444 38.1945 267.636 39.076 267.682 40.1109C267.727 41.1431 268.609 41.9534 269.644 41.9079Z" fill="white"/>
<path d="M108.008 70.367C106.371 62.8549 102.711 55.3684 100.021 48.1576C98.594 44.3277 95.4549 39.1613 95.1365 35.0555C95.0313 33.7106 93.7489 32.7126 92.2704 32.8292L37.5247 29.13C36.0461 29.2437 34.9315 30.4266 35.0368 31.7715L46.0689 61.3707C46.1741 62.7156 47.4565 63.7136 48.935 63.597L93.0864 66.4204C95.7933 68.061 100.081 69.7073 102.794 71.3423C105.799 73.1535 109.512 77.2621 108.008 70.367Z" fill="#EDE6FA"/>
<path d="M68.3892 51.5213L50.6012 50.7479C49.4042 50.6967 48.4687 49.6731 48.5199 48.4761C48.5711 47.279 49.5947 46.3436 50.7917 46.3948L68.5797 47.1682C69.7767 47.2193 70.7122 48.2429 70.661 49.44C70.607 50.637 69.5862 51.5725 68.3892 51.5213Z" fill="white"/>
<path d="M81.1814 44.1542L48.9521 42.7553C47.755 42.7041 46.8196 41.6805 46.8707 40.4835C46.9219 39.2864 47.9455 38.351 49.1426 38.4022L81.3719 39.8011C82.5689 39.8523 83.5044 40.8759 83.4532 42.0729C83.3992 43.27 82.3784 44.2054 81.1814 44.1542Z" fill="white"/>
<g opacity="0.72">
<path d="M138.065 26.5483C137.01 21.7118 134.653 16.8923 132.924 12.2491C132.006 9.78394 129.984 6.45723 129.78 3.81292C129.711 2.9457 128.887 2.30595 127.934 2.37988L92.6855 0C91.733 0.0739269 91.0164 0.835943 91.0818 1.70032L98.1845 20.7564C98.2527 21.6236 99.0773 22.2634 100.03 22.1894L128.458 24.0063C130.201 25.0641 132.961 26.1218 134.707 27.1738C136.644 28.3424 139.032 30.9867 138.065 26.5483Z" fill="#EDE6FA"/>
<path d="M112.555 14.4129L101.102 13.9154C100.331 13.8812 99.7283 13.2244 99.7624 12.4539C99.7965 11.6833 100.453 11.0805 101.224 11.1147L112.677 11.6122C113.447 11.6464 114.05 12.3032 114.016 13.0737C113.982 13.8443 113.325 14.4471 112.555 14.4129Z" fill="white"/>
<path d="M120.792 9.67027L100.041 8.76893C99.2705 8.73481 98.6678 8.078 98.7019 7.30745C98.736 6.53691 99.3928 5.93412 100.163 5.96824L120.914 6.86958C121.685 6.9037 122.287 7.56051 122.253 8.33106C122.219 9.1016 121.562 9.70439 120.792 9.67027Z" fill="white"/>
</g>
<path d="M140.212 54.1202L122.424 53.3468C121.227 53.2956 120.292 52.272 120.343 51.075C120.394 49.8779 121.417 48.9425 122.615 48.9936L140.402 49.767C141.6 49.8182 142.535 50.8418 142.484 52.0389C142.43 53.2359 141.406 54.1714 140.212 54.1202Z" fill="#BCACE1"/>
<path d="M141.986 62.8123L124.198 62.0389C123.001 61.9877 122.066 60.9641 122.117 59.767C122.168 58.57 123.192 57.6345 124.389 57.6857L142.177 58.4591C143.374 58.5103 144.309 59.5339 144.258 60.7309C144.204 61.928 143.183 62.8663 141.986 62.8123Z" fill="#BCACE1"/>
<path d="M145.14 71.7376L127.352 70.9642C126.155 70.913 125.219 69.8894 125.27 68.6923C125.321 67.4953 126.345 66.5598 127.542 66.611L145.33 67.3844C146.527 67.4356 147.463 68.4592 147.411 69.6562C147.36 70.8533 146.337 71.7887 145.14 71.7376Z" fill="#BCACE1"/>
<defs>
<linearGradient id="paint0_linear" x1="234.556" y1="127.692" x2="198.525" y2="114.951" gradientUnits="userSpaceOnUse">
<stop stop-color="#A7ADFF"/>
<stop offset="1" stop-color="#E3E5FC"/>
</linearGradient>
</defs>
</svg>
